<svg version="1.1" id="Layer_1" xmlns="http://www.w3.org/2000/svg" xmlns:xlink="http://www.w3.org/1999/xlink" x="0px" y="0px"
	 width="100%" viewBox="0 0 853 187" enable-background="new 0 0 853 187" xml:space="preserve">
<path fill="#010101" opacity="1.000000" stroke="none" 
	d="
M623.000000,188.000000 
	C416.882721,188.000000 211.265457,187.982101 5.648293,188.123810 
	C1.379637,188.126755 0.891158,186.995483 0.900409,183.150238 
	C1.043113,123.831512 1.047122,64.512199 0.888846,5.193543 
	C0.878812,1.432997 1.851009,0.914968 5.304739,0.916086 
	C286.737091,1.007234 568.169495,1.004924 849.601868,0.938438 
	C852.803528,0.937681 854.142273,1.078593 854.129639,5.100224 
	C853.941772,64.751968 853.958679,124.404587 854.103760,184.056564 
	C854.112366,187.594727 853.247375,188.092728 849.945007,188.087738 
	C774.463501,187.973846 698.981689,188.000000 623.000000,188.000000 
z"/>
<path fill="#ECE7E6" opacity="1.000000" stroke="none" 
	d="
M778.097168,167.428543 
	C774.026794,167.308426 771.246887,165.811615 770.159973,162.100189 
	C769.285339,159.113693 770.096191,156.306839 772.357117,154.333664 
	C775.223816,151.831802 778.549744,152.335327 781.683960,154.035522 
	C784.647095,155.642899 786.695312,155.015747 788.126831,151.926422 
	C790.573608,146.646133 793.103943,141.404282 795.632019,136.162064 
	C796.602661,134.149292 796.028381,132.306519 795.284668,130.394257 
	C789.439453,115.364403 783.643799,100.315231 777.781372,85.292145 
	C777.181152,83.754074 776.421082,82.207840 775.411194,80.919373 
	C774.331909,79.542412 772.972229,77.642853 771.466187,80.777245 
	C770.067749,83.687637 767.309753,82.236351 765.212158,82.274033 
	C754.109802,82.473457 754.096680,82.393120 754.064758,93.583534 
	C754.045288,100.416565 753.820251,107.261078 754.132385,114.080070 
	C754.562561,123.478554 758.175476,126.198746 767.226868,124.371811 
	C768.432861,124.128410 769.357361,123.586174 770.142090,125.043732 
	C771.006531,126.649475 770.287903,127.530388 768.974670,128.257599 
	C761.728516,132.270157 754.060974,134.167892 745.925354,131.841782 
	C739.883423,130.114258 736.801147,125.514732 736.822266,119.096336 
	C736.857361,108.430405 736.838318,97.759804 737.177490,87.101837 
	C737.294128,83.437881 736.481262,81.889290 732.566956,82.298218 
	C731.030212,82.458763 728.465332,83.413551 727.898315,80.861877 
	C727.378235,78.521553 729.888062,78.121880 731.335327,77.191223 
	C738.391052,72.653976 744.357422,66.865776 750.201599,60.929501 
	C751.236755,59.878052 752.207642,58.304821 753.891357,58.873981 
	C755.795044,59.517487 754.840393,61.419479 755.030701,62.798546 
	C755.075806,63.124996 755.030334,63.464111 755.024658,63.797367 
	C754.834656,74.958778 754.834595,74.952171 765.813965,74.899773 
	C776.476013,74.848892 787.138184,74.802177 797.800293,74.784096 
	C799.314880,74.781525 801.338440,73.873734 801.621277,76.573845 
	C801.843994,78.699791 800.464905,78.901932 798.824158,79.134491 
	C796.322693,79.489029 796.179138,81.355042 796.713257,83.294067 
	C799.479736,93.336273 802.300232,103.363579 805.110657,113.427605 
	C807.540649,112.864075 807.512085,111.072487 808.020447,109.824654 
	C811.158081,102.122894 814.225952,94.391426 817.205505,86.627037 
	C818.678589,82.788399 819.284058,79.171753 813.325928,79.053200 
	C811.292725,79.012741 811.447083,77.575348 811.483765,76.236069 
	C811.532166,74.472687 812.848022,74.675850 814.011475,74.678032 
	C820.174927,74.689598 826.338379,74.697441 832.501831,74.720764 
	C833.639954,74.725075 834.928406,74.497055 834.986450,76.301758 
	C835.033264,77.758743 834.938660,78.965126 833.015930,79.024628 
	C828.988647,79.149254 827.442505,82.240852 825.895813,85.213425 
	C816.683655,102.917587 808.728394,121.222816 800.105774,139.209000 
	C796.585449,146.552185 793.464844,154.101639 789.007812,160.974899 
	C786.507324,164.830887 783.332214,167.467331 778.097168,167.428543 
z"/>
<path fill="#EDE8E6" opacity="1.000000" stroke="none" 
	d="
M238.019379,35.951756 
	C258.171631,35.923084 277.828857,35.980885 297.482971,35.760075 
	C300.682892,35.724125 302.284943,36.391411 302.964966,39.653851 
	C304.083435,45.019756 305.596588,50.302727 306.902100,55.630764 
	C307.240234,57.010674 308.034576,58.473969 306.013123,59.455910 
	C304.336975,60.270142 303.591827,59.269241 302.681549,58.255959 
	C301.682648,57.144096 300.498291,56.184258 299.591125,55.006882 
	C290.280457,42.923100 277.755310,38.962048 263.003265,40.082676 
	C260.223846,40.293816 259.238281,40.918007 259.240112,43.730137 
	C259.247406,54.723866 259.122375,65.718559 258.929810,76.710846 
	C258.887970,79.099136 259.680084,80.039131 262.085175,79.804268 
	C265.727386,79.448601 269.468384,79.634941 273.015015,78.877487 
	C278.580139,77.688950 280.957092,73.266197 282.192017,68.164833 
	C282.625946,66.372398 283.005981,64.993706 285.374878,65.440239 
	C287.661469,65.871254 287.641907,67.239716 287.528290,69.103882 
	C287.061798,76.757484 287.211121,84.410225 287.787903,92.061546 
	C287.921326,93.831375 289.142914,96.179474 286.088074,96.980377 
	C283.012482,97.786728 283.036255,95.247475 282.344574,93.549202 
	C279.287048,86.041924 267.758759,81.104561 260.189850,83.993591 
	C258.593872,84.602783 258.930908,85.753098 258.958221,86.831169 
	C259.232361,97.651405 259.489746,108.472595 259.871246,119.289307 
	C260.021301,123.543800 262.226929,125.890793 266.664581,126.385773 
	C281.236450,128.011124 294.724335,126.793419 304.078033,113.403275 
	C305.308868,111.641312 306.880463,110.110489 308.352600,108.526855 
	C309.105072,107.717438 309.784882,106.610916 311.244598,107.532700 
	C312.536224,108.348343 313.047729,109.219536 312.559143,110.823463 
	C310.767426,116.705193 309.091522,122.622536 307.406891,128.536392 
	C306.526855,131.625641 304.081268,131.233643 301.741058,131.224777 
	C280.419403,131.143967 259.097687,131.074097 237.775940,131.020935 
	C235.278275,131.014709 232.778229,131.084839 230.283279,131.203400 
	C228.772232,131.275192 227.606339,131.078751 227.632629,129.187881 
	C227.654404,127.621254 227.694046,126.489868 229.908997,126.187492 
	C239.747803,124.844353 239.756165,124.744812 239.709595,114.637695 
	C239.612915,93.651451 239.492874,72.665306 239.373123,51.679176 
	C239.365524,50.348007 239.210205,49.015816 239.239288,47.686630 
	C239.347183,42.755428 237.323013,40.181091 232.041397,40.630821 
	C230.326813,40.776821 227.826355,41.662979 227.823547,38.179619 
	C227.820694,34.621895 230.321121,35.911446 232.031372,35.819057 
	C233.854431,35.720585 235.692047,35.891941 238.019379,35.951756 
z"/>
<path fill="#EBE8E6" opacity="1.000000" stroke="none" 
	d="
M421.163208,74.689438 
	C435.536499,80.471809 443.376678,93.592697 440.858582,107.161568 
	C438.108551,121.980232 426.324768,132.078003 411.359833,132.808212 
	C398.561096,133.432709 388.297516,129.107635 382.408203,117.436081 
	C376.675110,106.074043 377.551178,94.699364 385.715546,84.700745 
	C394.026855,74.522125 405.045837,71.146416 417.901001,73.786102 
	C418.875275,73.986168 419.827271,74.294930 421.163208,74.689438 
z"/>
<path fill="#ECE9E7" opacity="1.000000" stroke="none" 
	d="
M561.840088,70.210922 
	C563.039612,65.362556 564.295593,60.803001 565.760986,56.311787 
	C568.291382,48.556335 566.028992,43.672173 558.191589,40.727440 
	C556.392273,40.051384 556.770752,38.770119 556.693848,37.504398 
	C556.586365,35.736465 557.835022,35.762627 559.025024,35.763481 
	C569.670105,35.771145 580.315125,35.804298 590.960205,35.787006 
	C592.557373,35.784412 593.411926,36.218601 593.426208,38.022438 
	C593.441345,39.929264 592.702271,40.859283 590.800110,40.728920 
	C586.302979,40.420727 584.960327,42.965298 586.121216,46.680611 
	C592.015747,65.544991 598.101196,84.349754 604.157471,103.163277 
	C604.275452,103.529793 604.853394,103.748222 605.598389,104.014435 
	C607.926697,101.945793 609.142700,99.595024 609.024658,96.346100 
	C609.360535,94.877228 609.686157,93.748260 610.202148,92.319008 
	C612.855042,87.243721 612.918762,87.235825 615.996826,91.689377 
	C615.776978,93.157623 615.442993,94.274452 614.914734,95.687614 
	C612.938538,97.502518 612.779114,99.696098 612.232910,102.109764 
	C609.347778,112.023521 605.412964,121.174774 601.859680,130.466080 
	C601.226440,132.121948 600.260254,133.482910 598.263855,133.318649 
	C595.915710,133.125427 595.623596,131.016068 595.031860,129.366135 
	C588.307983,110.617783 581.630920,91.852684 574.942566,73.091606 
	C573.939758,70.278725 572.941956,67.464066 571.945496,64.648949 
	C571.513428,63.428310 571.268494,61.871265 569.215210,63.652298 
	C567.543640,65.444191 567.757568,67.583908 566.819824,69.248444 
	C565.638794,71.344780 564.294067,72.712395 561.840088,70.210922 
z"/>
<path fill="#ECE8E7" opacity="1.000000" stroke="none" 
	d="
M546.650513,102.750809 
	C547.404480,103.361320 547.893188,103.714462 548.694885,104.047455 
	C551.287170,104.018127 552.090698,105.435287 552.390137,107.797638 
	C550.056580,114.778793 547.726746,121.430817 545.143799,127.983040 
	C544.353027,129.988998 544.374329,133.078690 541.336243,133.243561 
	C537.995911,133.424850 538.237610,130.099609 537.545227,128.174866 
	C527.971497,101.562157 518.509460,74.908943 509.128571,48.227482 
	C507.658081,44.045048 506.139923,40.314911 500.743744,40.700199 
	C498.851074,40.835335 498.619141,39.710011 498.602325,38.172993 
	C498.584167,36.515934 499.116272,35.770863 500.889709,35.777702 
	C511.719971,35.819489 522.550476,35.796570 533.380920,35.770367 
	C534.948669,35.766571 535.844238,36.223431 535.913940,38.015408 
	C535.978027,39.665192 535.448914,40.674133 533.778381,40.655361 
	C528.151367,40.592133 528.565369,43.722347 529.812134,47.647541 
	C533.386414,58.900253 536.828064,70.195076 540.347351,81.836319 
	C542.579285,88.904083 543.144775,96.095024 546.650513,102.750809 
z"/>
<path fill="#E7DAD6" opacity="1.000000" stroke="none" 
	d="
M51.637390,107.730553 
	C54.726147,122.355156 60.203171,135.314423 70.843971,145.769943 
	C89.520874,164.121628 117.645683,169.117050 141.641769,158.219147 
	C165.422195,147.419189 180.219040,123.054756 178.244049,96.494247 
	C176.313034,70.524826 162.856934,51.892250 138.871078,42.246639 
	C114.259842,32.349545 91.511902,37.210583 71.632576,54.876259 
	C70.649406,55.749947 69.903870,56.891052 68.999420,57.964943 
	C66.159981,55.056702 67.397728,53.182289 69.621582,51.272469 
	C90.504539,33.338406 114.071640,28.046986 139.804886,38.235580 
	C164.572678,48.041935 179.123337,66.825790 182.179840,93.483406 
	C186.090942,127.594421 164.761047,157.658081 131.135986,166.405670 
	C99.881897,174.536423 65.936661,157.196503 53.092800,126.505196 
	C50.708275,120.807213 49.356930,114.811684 48.144634,108.375244 
	C48.936264,106.993752 50.049091,106.913696 51.637390,107.730553 
z"/>
<path fill="#EBE6E4" opacity="1.000000" stroke="none" 
	d="
M360.348114,90.918465 
	C357.200073,89.236488 355.646637,86.757774 354.699921,83.824394 
	C353.605042,80.431992 351.258881,78.598526 347.735199,78.381622 
	C344.322327,78.171539 342.164948,80.184128 340.478546,82.832870 
	C334.764984,91.807106 337.776276,112.704269 345.771210,119.692314 
	C350.632385,123.941277 360.625854,124.373764 367.503448,120.798302 
	C369.022461,120.008614 370.655731,117.286774 372.545349,119.883064 
	C374.598816,122.704460 371.759918,124.155205 370.075623,125.378731 
	C359.358185,133.164383 347.534393,135.163773 335.147736,130.454834 
	C326.932007,127.331512 322.305542,120.468468 320.900055,111.972046 
	C318.374054,96.702263 324.000244,83.704659 336.015991,76.774216 
	C345.352905,71.388870 355.083221,71.815041 364.759064,76.106865 
	C365.648132,76.501213 366.414185,77.215790 367.169891,77.860687 
	C370.899017,81.042953 372.474396,85.836792 370.504547,88.861839 
	C368.040619,92.645653 364.398834,92.232101 360.348114,90.918465 
z"/>
<path fill="#ECE8E7" opacity="1.000000" stroke="none" 
	d="
M699.079590,66.073715 
	C701.201782,63.924198 703.085571,62.042492 704.960327,60.151833 
	C705.794128,59.310921 706.654968,58.417389 707.966980,58.870899 
	C709.465820,59.388962 709.030090,60.773029 709.027893,61.858334 
	C709.021118,65.188148 709.103210,68.533974 708.804382,71.842285 
	C708.572388,74.411949 709.606445,75.013557 711.901978,74.934624 
	C715.394653,74.814514 718.906067,74.750549 722.386047,74.995964 
	C723.772461,75.093735 726.655090,73.511696 726.292847,76.714691 
	C726.018494,79.140556 726.531860,82.795830 721.919556,82.433868 
	C718.613770,82.174446 715.256409,82.606590 711.943298,82.396111 
	C708.808350,82.196945 707.990112,83.469345 708.041077,86.436188 
	C708.195435,95.425781 707.887573,104.425766 708.149902,113.410309 
	C708.380127,121.293411 711.443481,127.949959 721.508057,124.271767 
	C722.698425,123.836761 723.747742,123.686790 724.291260,125.253098 
	C724.756592,126.594025 724.374390,127.482430 723.167908,128.143402 
	C715.606262,132.285965 707.679871,134.436462 699.208862,131.572693 
	C693.636902,129.689011 690.858459,125.353073 690.866882,119.294952 
	C690.881653,108.637794 690.861267,97.975212 691.213440,87.326736 
	C691.341858,83.445480 690.319092,81.844643 686.314453,82.274132 
	C684.847473,82.431465 682.626099,83.177567 681.974548,81.057175 
	C681.341858,78.997940 683.425110,78.325737 684.794556,77.503983 
	C689.970642,74.398148 694.421875,70.393173 699.079590,66.073715 
z"/>
<path fill="#E9E6E5" opacity="1.000000" stroke="none" 
	d="
M644.758240,127.344421 
	C651.939636,126.407028 652.022949,126.407516 652.063660,119.464874 
	C652.112488,111.135086 651.827026,102.800201 652.026611,94.475685 
	C652.139160,89.782608 650.812561,86.336365 646.243286,84.563568 
	C644.953369,84.063095 643.760193,83.431061 643.966064,81.735291 
	C644.183716,79.942329 645.829102,80.003006 646.993591,79.618538 
	C652.835876,77.689629 658.712463,75.864922 664.574524,73.995674 
	C669.778503,72.336250 669.823425,72.467438 669.788025,77.818840 
	C669.692078,92.311218 669.689819,106.804588 669.743286,121.297226 
	C669.752197,123.710976 669.489929,126.596123 673.605408,126.886292 
	C674.816467,127.975334 675.065552,129.048553 674.244812,130.607819 
	C664.637634,131.035522 655.286499,131.106003 645.473633,131.094482 
	C644.179993,130.013443 643.926086,128.925308 644.758240,127.344421 
z"/>
<path fill="#E9E3E2" opacity="1.000000" stroke="none" 
	d="
M61.481647,80.513435 
	C62.170658,80.881943 62.720406,81.166428 63.379818,80.707695 
	C73.865860,73.412849 85.447662,75.472725 97.925797,76.362076 
	C92.230759,82.071800 89.668060,88.778893 85.546356,94.489410 
	C80.027061,102.136261 72.621910,105.065849 64.418198,103.087852 
	C61.678894,102.427391 61.149101,101.690903 62.825401,99.237518 
	C66.158562,94.359207 70.351562,90.427353 75.170227,87.111130 
	C76.257538,86.362839 77.242065,85.612389 77.881851,83.649353 
	C69.964020,86.604088 64.068199,91.522591 58.660027,97.844620 
	C57.555393,93.737732 58.099598,90.387535 59.141411,86.668259 
	C59.457180,85.045403 59.574333,83.777481 60.320896,82.355225 
	C60.615135,81.678543 60.803272,81.301193 61.481647,80.513435 
z"/>
<path fill="#EAE5E2" opacity="1.000000" stroke="none" 
	d="
M52.056324,107.696449 
	C50.933212,107.988297 49.857395,107.990990 48.378059,108.000801 
	C37.945484,109.401390 31.194368,104.781502 26.072289,96.554314 
	C22.943911,91.529449 20.651083,85.918282 15.633796,81.382767 
	C23.988375,80.082863 31.754349,79.345459 39.601883,80.908844 
	C51.477711,83.274750 56.172188,89.703133 54.790146,102.447319 
	C50.722263,97.946579 46.719620,93.917030 41.325439,91.110756 
	C39.185898,90.042519 36.786198,90.784859 35.859829,89.249191 
	C36.576603,89.527176 37.751240,90.248909 38.787834,91.728020 
	C39.194637,92.237991 39.407421,92.453392 39.748402,92.851883 
	C40.115501,93.939865 40.869781,94.283264 41.876923,94.794418 
	C42.747444,95.348984 43.348869,95.753525 44.035179,96.421440 
	C45.161381,98.068214 45.862259,99.745163 47.769501,100.806900 
	C48.380547,101.315575 48.726799,101.627602 49.141624,102.166153 
	C49.582096,103.541786 49.999481,104.668922 51.120037,105.726273 
	C51.680115,106.354385 51.891865,106.880844 52.056324,107.696449 
z"/>
<path fill="#E9E2DE" opacity="1.000000" stroke="none" 
	d="
M616.355408,91.788422 
	C614.398315,92.115234 612.889221,87.127060 610.691406,91.926849 
	C614.127808,80.161507 617.880615,68.309769 621.582458,56.442142 
	C622.272888,54.228817 622.851196,51.970863 623.322021,49.700474 
	C624.849548,42.334110 624.580872,41.851562 617.318909,40.774620 
	C615.316589,40.477673 614.912781,39.640850 614.923889,37.870579 
	C614.935669,35.989559 615.936462,35.723705 617.459534,35.729710 
	C625.432617,35.761139 633.405823,35.756458 641.379028,35.741360 
	C642.717896,35.738823 643.640381,36.023857 643.546448,37.661724 
	C643.470459,38.988670 643.734497,40.674927 641.811584,40.600048 
	C635.513184,40.354771 633.872192,44.884651 632.159058,49.548031 
	C627.012146,63.558559 621.791626,77.542038 616.355408,91.788422 
z"/>
<path fill="#E9E4E2" opacity="1.000000" stroke="none" 
	d="
M57.280735,84.241745 
	C56.751266,80.279816 56.526318,76.497276 56.220222,72.306015 
	C55.732723,71.781258 55.473373,71.121162 54.855434,71.788574 
	C54.420353,76.094360 54.045135,80.178238 53.631775,84.677322 
	C51.157623,83.584686 50.276318,81.490234 49.596191,79.652252 
	C45.044083,67.350563 45.829517,55.527462 53.195713,44.391472 
	C54.830368,41.920258 55.846970,41.741543 57.694191,44.471306 
	C65.132683,55.463634 65.657829,67.101860 61.777935,79.703186 
	C61.943447,80.088860 61.981255,80.021851 61.996758,79.986649 
	C61.459373,80.471947 61.510418,81.194710 61.189034,82.149323 
	C60.108894,83.526237 59.312183,84.777634 57.280735,84.241745 
z"/>
<path fill="#E9E3E2" opacity="1.000000" stroke="none" 
	d="
M490.212952,99.478775 
	C478.565979,99.715195 467.167084,99.642128 455.775360,99.894417 
	C451.357697,99.992249 452.804932,97.113991 452.769775,94.472878 
	C453.842407,90.923073 456.387421,90.997452 458.920471,90.999916 
	C468.082489,91.008827 477.244476,90.989395 486.850433,91.021751 
	C489.589050,91.053047 491.047058,92.296539 492.165955,94.658920 
	C492.407288,95.477715 492.494934,95.897873 492.488708,96.628326 
	C491.938843,97.878990 491.342163,98.704262 490.212952,99.478775 
z"/>
<path fill="#EBE5E3" opacity="1.000000" stroke="none" 
	d="
M668.922119,53.782368 
	C668.695496,55.700645 668.070068,57.019325 667.069092,58.185062 
	C664.064270,61.684185 658.392517,62.913540 654.321838,60.737381 
	C650.666382,58.783199 649.021667,55.540810 650.207275,51.573544 
	C651.602966,46.903751 655.522583,45.469593 659.988403,45.504784 
	C665.399536,45.547424 667.972473,47.911385 668.922119,53.782368 
z"/>
<path fill="#E5DCD9" opacity="1.000000" stroke="none" 
	d="
M552.708069,107.909454 
	C551.466980,106.966713 550.450134,105.768265 549.220581,104.298569 
	C553.065613,92.808510 557.123352,81.589706 561.435242,70.131134 
	C564.547302,71.647034 565.603333,69.893730 566.747131,67.579948 
	C567.356873,66.346581 565.669556,64.046280 568.713867,63.918316 
	C563.648743,78.553223 558.290527,93.103493 552.708069,107.909454 
z"/>
<path fill="#FFF6F2" opacity="1.000000" stroke="none" 
	d="
M489.468842,92.263000 
	C478.715271,92.067383 468.328766,92.047569 457.942352,91.999084 
	C456.258667,91.991211 454.616974,91.971642 453.213806,93.811295 
	C452.025482,90.988831 453.144684,89.997368 456.301270,90.039413 
	C467.541321,90.189110 478.784637,90.091995 490.486450,90.164314 
	C491.758514,91.569679 491.190277,92.198822 489.468842,92.263000 
z"/>
<path fill="#E5DCD9" opacity="1.000000" stroke="none" 
	d="
M546.958374,102.620689 
	C544.449951,103.948074 543.388306,102.396500 543.411133,100.462616 
	C543.482422,94.431900 540.644409,88.990089 540.276245,82.646240 
	C542.582275,88.877274 544.791687,95.555237 546.958374,102.620689 
z"/>
<path fill="#E9E2DE" opacity="1.000000" stroke="none" 
	d="
M608.806030,96.273224 
	C611.232422,99.520226 609.768433,101.935669 606.328857,103.928070 
	C606.845703,101.508842 607.711426,99.024544 608.806030,96.273224 
z"/>
<path fill="#43403E" opacity="1.000000" stroke="none" 
	d="
M39.125725,91.733978 
	C36.852108,90.883591 34.709709,89.757080 32.240772,88.458870 
	C35.816196,87.065102 38.077011,89.259422 40.799767,90.706314 
	C40.422310,91.150452 39.839626,91.304153 39.125725,91.733978 
z"/>
<path fill="#EADCD8" opacity="1.000000" stroke="none" 
	d="
M674.425537,131.070236 
	C673.993225,129.906128 673.997803,128.847198 673.993896,127.391251 
	C675.614319,126.989838 677.814209,125.690819 678.274536,128.556122 
	C678.714966,131.297623 676.827209,131.372452 674.425537,131.070236 
z"/>
<path fill="#DDCFCD" opacity="1.000000" stroke="none" 
	d="
M489.224854,92.345200 
	C489.886932,91.954720 490.630951,91.757599 490.881775,90.527405 
	C493.575623,90.765373 492.389008,92.866722 492.485657,94.713493 
	C491.329071,94.236267 490.338501,93.414970 489.224854,92.345200 
z"/>
<path fill="#E9E2DE" opacity="1.000000" stroke="none" 
	d="
M612.422729,102.223549 
	C612.606445,100.279243 610.426941,97.365273 614.331421,96.013733 
	C614.045593,97.986282 613.370789,99.988625 612.422729,102.223549 
z"/>
<path fill="#E7DAD6" opacity="1.000000" stroke="none" 
	d="
M47.966064,100.679031 
	C45.469948,101.201561 44.511166,99.633537 44.119099,97.064018 
	C45.379326,97.908043 46.638584,99.131279 47.966064,100.679031 
z"/>
<path fill="#DDCFCD" opacity="1.000000" stroke="none" 
	d="
M490.301208,99.766464 
	C490.007294,98.382645 490.211121,97.216286 492.094513,96.969711 
	C492.938965,98.591888 492.655731,99.750755 490.301208,99.766464 
z"/>
<path fill="#3C3735" opacity="1.000000" stroke="none" 
	d="
M57.057583,84.389275 
	C58.553986,84.459290 58.994663,83.030159 60.113762,82.119095 
	C60.640320,81.809532 60.905777,81.652061 61.564270,81.739265 
	C61.230522,83.302193 60.503738,84.620438 59.500278,86.110626 
	C58.528713,85.760445 57.833832,85.238319 57.057583,84.389275 
z"/>
<path fill="#EADCD8" opacity="1.000000" stroke="none" 
	d="
M644.627686,126.918411 
	C645.007996,128.055115 645.002136,129.130554 645.004028,130.609222 
	C641.897644,130.157104 642.341370,128.642136 644.627686,126.918411 
z"/>
<path fill="#E7DAD6" opacity="1.000000" stroke="none" 
	d="
M51.378899,105.490227 
	C49.684299,105.868362 49.010899,104.904678 49.165882,102.812408 
	C49.903275,103.312622 50.596352,104.232574 51.378899,105.490227 
z"/>
<path fill="#5C5756" opacity="1.000000" stroke="none" 
	d="
M55.126976,71.929131 
	C54.169044,70.767723 54.300758,69.311615 55.543655,69.014572 
	C56.385517,68.813377 56.201199,70.438599 56.253319,71.591377 
	C55.912174,71.880798 55.685276,71.864288 55.126976,71.929131 
z"/>
<path fill="#E7DAD6" opacity="1.000000" stroke="none" 
	d="
M42.028896,94.658066 
	C41.113857,94.741013 39.497818,95.616463 39.679741,93.278748 
	C40.546555,93.488884 41.229164,93.930290 42.028896,94.658066 
z"/>
<path fill="#050404" opacity="1.000000" stroke="none" 
	d="
M419.047241,118.738327 
	C418.233704,120.616417 417.670624,122.209625 416.769806,123.581009 
	C413.336212,128.808167 406.164795,129.041519 402.471100,124.013428 
	C401.410278,122.569305 400.538300,120.878326 400.011658,119.167564 
	C396.700775,108.412903 396.771973,97.566620 399.869019,86.810730 
	C401.138611,82.401611 403.262726,78.362648 408.844177,78.209114 
	C414.279816,78.059593 417.081116,81.614136 418.607513,85.996613 
	C422.321991,96.661064 421.876434,107.516815 419.047241,118.738327 
z"/>
<path fill="#010101" opacity="1.000000" stroke="none" 
	d="
M62.331963,81.677124 
	C61.694130,81.944267 61.430954,81.904594 60.771324,81.915955 
	C60.675102,81.292809 60.975338,80.618614 61.643917,79.947929 
	C62.788807,80.157639 63.025425,80.628067 62.331963,81.677124 
z"/>
</svg>